<svg xmlns="http://www.w3.org/2000/svg" version="1.1" xmlns:xlink="http://www.w3.org/1999/xlink" xmlns:svgjs="http://svgjs.com/svgjs" width="1440" height="560" preserveAspectRatio="none" viewBox="0 0 1440 560"><g mask="url(&quot;#SvgjsMask1001&quot;)" fill="none"><rect width="1440" height="560" x="0" y="0" fill="rgba(6, 9, 25, 1)"></rect><path d="M1279.15-30C1093.11-19.98 951.7 312.86 617.71 313.32 283.72 313.78 126.21 157.59-43.73 156.52" stroke="rgba(32, 42, 97, 0.38)" stroke-width="2"></path><path d="M629.31-8.68C538.41 23.17 605.17 270.38 388.85 292.32 172.53 314.26 36.69 473.98-92.07 477.12" stroke="rgba(32, 42, 97, 0.38)" stroke-width="2"></path><path d="M821.46-82.81C671.59-71.06 596.35 212.41 306.75 228.06 17.15 243.71-67.71 447.28-207.96 452.06" stroke="rgba(32, 42, 97, 0.38)" stroke-width="2"></path><path d="M738.82-55.7C638.75-23.36 677.66 265.2 468.7 266.78 259.75 268.36 66.69 149.86-71.53 149.18" stroke="rgba(32, 42, 97, 0.38)" stroke-width="2"></path><path d="M1032.93-63.67C879.17-8.46 858.78 435.53 628.7 449.77 398.62 464.01 426.59 379.77 224.47 379.77 22.36 379.77-77.2 449.51-179.76 449.77" stroke="rgba(32, 42, 97, 0.38)" stroke-width="2"></path></g><defs><mask id="SvgjsMask1001"><rect width="1440" height="560" fill="#ffffff"></rect></mask></defs></svg>