<svg xmlns="http://www.w3.org/2000/svg" version="1.1" xmlns:xlink="http://www.w3.org/1999/xlink" xmlns:svgjs="http://svgjs.dev/svgjs" width="1000" height="623" viewBox="0 0 1000 623"><g transform="matrix(1,0,0,1,-0.6060606060606233,102.68968016194333)"><svg viewBox="0 0 396 247" data-background-color="#000000" preserveAspectRatio="xMidYMid meet" height="623" width="1000" xmlns="http://www.w3.org/2000/svg" xmlns:xlink="http://www.w3.org/1999/xlink"><g id="tight-bounds" transform="matrix(1,0,0,1,0.2400000000000091,-0.09999999999999432)"><svg viewBox="0 0 395.52 247.2" height="247.2" width="395.52"><g><svg></svg></g><g><svg viewBox="0 0 395.52 247.2" height="247.2" width="395.52"><g transform="matrix(1,0,0,1,75.54432000000001,86.31638804148872)"><svg viewBox="0 0 244.43135999999996 74.56722391702256" height="74.56722391702256" width="244.43135999999996"><g><svg viewBox="0 0 244.43135999999996 74.56722391702256" height="74.56722391702256" width="244.43135999999996"><g><svg viewBox="0 0 244.43135999999996 74.56722391702256" height="74.56722391702256" width="244.43135999999996"><g><svg viewBox="0 0 244.43135999999996 74.56722391702256" height="74.56722391702256" width="244.43135999999996"><g id="textblocktransform"><svg viewBox="0 0 244.43135999999996 74.56722391702256" height="74.56722391702256" width="244.43135999999996" id="textblock"><g><svg viewBox="0 0 244.43135999999996 74.56722391702256" height="74.56722391702256" width="244.43135999999996"><g transform="matrix(1,0,0,1,0,0)"><svg width="244.43135999999996" viewBox="1.7999999523162842 -25 81.94999694824219 25" height="74.56722391702256" data-palette-color="#77d4fc"><path d="M32.85-22.7L32.85-22.7Q32.85-24.05 32.45-25L32.45-25 46.7-25Q48.5-20.2 49.38-13.25 50.25-6.3 50.3 0L50.3 0 38.75 0Q38.4-9 35.8-17.35L35.8-17.35Q31.45-8.85 31.1 0L31.1 0 21.3 0Q20-9.8 16.3-17.4L16.3-17.4Q13.6-11.05 13.6-5.6L13.6-5.6Q13.6-2.65 14.3 0L14.3 0 2.15 0Q1.8-2.05 1.8-5.43 1.8-8.8 2.8-12.2L2.8-12.2Q6.35-13.25 9.63-15.65 12.9-18.05 14.45-20.9L14.45-20.9Q13.15-23.05 11.7-25L11.7-25 27.5-25Q29.4-19.85 30.35-13.8L30.35-13.8Q32.85-18.45 32.85-22.7ZM67.3-7.25L67.3-6.25Q67.3-3.4 67.55 0L67.55 0 56.55 0Q54.5-7.95 54.5-16.9L54.5-16.9Q54.5-21.45 55.05-25L55.05-25 82.15-25Q83.6-19.35 83.75-11.55L83.75-11.55Q76.35-8.25 67.3-7.25L67.3-7.25ZM67.35-10.7L67.35-10.7Q70.55-11.1 72.7-12.3L72.7-12.3Q71.9-17.6 68.4-21.7L68.4-21.7Q67.6-16.75 67.35-10.7Z" opacity="1" transform="matrix(1,0,0,1,0,0)" fill="#77d4fc" class="undefined-text-0" data-fill-palette-color="primary" id="text-0"></path></svg></g></svg></g></svg></g></svg></g><g></g></svg></g></svg></g></svg></g><g><path d="M88.563 68.713A122.216 122.216 0 0 1 306.957 68.713L300.233 68.713A115.491 115.491 0 0 0 95.287 68.713L88.563 68.713M88.563 178.487A122.216 122.216 0 0 0 306.957 178.487L300.233 178.487A115.491 115.491 0 0 1 95.287 178.487L88.563 178.487" fill="#77d4fc" stroke="transparent" data-fill-palette-color="tertiary"></path></g></svg></g><defs></defs></svg><rect width="395.52" height="247.2" fill="none" stroke="none" visibility="hidden"></rect></g></svg></g></svg>