<svg width="1000" height="560" viewBox="0 0 1000 560" fill="none" xmlns="http://www.w3.org/2000/svg">
<g clip-path="url(#clip0_1212_308)">
<g clip-path="url(#clip1_1212_308)">
<g clip-path="url(#clip2_1212_308)">
<g clip-path="url(#clip3_1212_308)">
<g clip-path="url(#clip4_1212_308)">
<g clip-path="url(#clip5_1212_308)">
<g clip-path="url(#clip6_1212_308)">
<g clip-path="url(#clip7_1212_308)">
<g clip-path="url(#clip8_1212_308)">
<g clip-path="url(#clip9_1212_308)">
<path d="M424.727 329.454C424.727 322.683 423.724 316.915 421.718 312.15H528.922C537.95 336.224 544.671 365.69 549.084 400.547C553.448 435.404 555.755 468.632 556.006 500.229H469.113C467.358 455.09 459.96 411.581 446.92 369.702C425.103 412.334 413.317 455.842 411.561 500.229H337.835C331.315 451.078 318.776 407.443 300.219 369.326C286.677 401.174 279.906 430.765 279.906 458.099C279.906 472.895 281.662 486.938 285.173 500.229H193.766C192.011 489.947 191.133 476.33 191.133 459.378C191.133 442.476 193.641 425.499 198.657 408.447C216.461 403.18 233.589 394.529 250.04 382.492C266.44 370.455 278.527 357.289 286.301 342.995C279.781 332.212 272.885 321.93 265.612 312.15H384.478C394.007 337.98 401.154 366.066 405.919 396.41C418.458 373.088 424.727 350.769 424.727 329.454ZM683.899 445.686V453.209C683.899 467.503 684.526 483.176 685.78 500.229H603.025C592.744 460.356 587.603 417.976 587.603 373.088C587.603 350.268 588.982 329.955 591.74 312.15H795.618C802.89 340.488 806.902 374.216 807.655 413.337C770.54 429.887 729.289 440.671 683.899 445.686ZM684.275 419.731C700.324 417.725 713.741 413.713 724.524 407.694C720.511 381.112 709.728 357.54 692.174 336.977C688.162 361.803 685.529 389.388 684.275 419.731Z" fill="#915EFF"/>
</g>
</g>
</g>
</g>
</g>
</g>
</g>
<path d="M223.97 267.75C249.631 216.7 288.975 173.786 337.61 143.799C386.245 113.812 442.257 97.9326 499.394 97.9326C556.531 97.9326 612.543 113.812 661.178 143.799C709.813 173.786 749.157 216.7 774.818 267.75H757.858C733.266 220.441 696.16 180.789 650.585 153.115C605.01 125.441 552.713 110.807 499.394 110.807C446.075 110.807 393.778 125.441 348.203 153.115C302.628 180.789 265.522 220.441 240.93 267.75H223.97ZM223.97 544.629C249.631 595.68 288.975 638.593 337.61 668.58C386.245 698.567 442.257 714.447 499.394 714.447C556.531 714.447 612.543 698.567 661.178 668.58C709.813 638.593 749.157 595.68 774.818 544.629H757.858C733.266 591.939 696.16 631.591 650.585 659.265C605.01 686.939 552.713 701.573 499.394 701.573C446.075 701.573 393.778 686.939 348.203 659.265C302.628 631.591 265.522 591.939 240.93 544.629H223.97Z" fill="#915EFF"/>
</g>
</g>
</g>
<defs>
<clipPath id="clip0_1212_308">
<rect width="1000" height="623" fill="white" transform="translate(0 -8)"/>
</clipPath>
<clipPath id="clip1_1212_308">
<rect width="1000" height="623" fill="white" transform="translate(-0.606049 94.6895)"/>
</clipPath>
<clipPath id="clip2_1212_308">
<rect width="997.607" height="623.504" fill="white" transform="translate(0.590424 94.4375)"/>
</clipPath>
<clipPath id="clip3_1212_308">
<rect width="616.521" height="188.078" fill="white" transform="translate(191.133 312.15)"/>
</clipPath>
<clipPath id="clip4_1212_308">
<rect width="616.521" height="188.078" fill="white" transform="translate(191.133 312.15)"/>
</clipPath>
<clipPath id="clip5_1212_308">
<rect width="616.521" height="188.078" fill="white" transform="translate(191.133 312.15)"/>
</clipPath>
<clipPath id="clip6_1212_308">
<rect width="616.521" height="188.078" fill="white" transform="translate(191.133 312.15)"/>
</clipPath>
<clipPath id="clip7_1212_308">
<rect width="616.521" height="188.078" fill="white" transform="translate(191.133 312.15)"/>
</clipPath>
<clipPath id="clip8_1212_308">
<rect width="616.521" height="188.078" fill="white" transform="translate(191.133 312.15)"/>
</clipPath>
<clipPath id="clip9_1212_308">
<rect width="616.521" height="188.078" fill="white" transform="translate(191.133 312.15)"/>
</clipPath>
</defs>
</svg>
